<svg width="32" height="30" viewBox="0 0 49 49" fill="none" xmlns="http://www.w3.org/2000/svg">
<g filter="url(#filter0_i_1_1194)">
<path d="M29.817 11.6417C30.454 10.5576 30.0732 9.17286 28.9664 8.54888C27.8596 7.9249 26.446 8.29793 25.809 9.38207L24.6979 11.273L23.5868 9.38207C22.9498 8.29793 21.5362 7.9249 20.4294 8.54888C19.3227 9.17286 18.9418 10.5576 19.5789 11.6417L22.0301 15.8135L14.2769 29.0087H8.03067C6.75366 29.0087 5.71844 30.0228 5.71844 31.2736C5.71844 32.5245 6.75366 33.5386 8.03067 33.5386H29.7867C29.9774 33.0476 30.1783 32.2052 29.9647 31.4309C29.6435 30.267 28.4553 29.0087 26.4642 29.0087H19.6126L29.817 11.6417Z" fill="url(#paint0_linear_1_1194)"/>
<path d="M29.817 11.6417C30.454 10.5576 30.0732 9.17286 28.9664 8.54888C27.8596 7.9249 26.446 8.29793 25.809 9.38207L24.6979 11.273L23.5868 9.38207C22.9498 8.29793 21.5362 7.9249 20.4294 8.54888C19.3227 9.17286 18.9418 10.5576 19.5789 11.6417L22.0301 15.8135L14.2769 29.0087H8.03067C6.75366 29.0087 5.71844 30.0228 5.71844 31.2736C5.71844 32.5245 6.75366 33.5386 8.03067 33.5386H29.7867C29.9774 33.0476 30.1783 32.2052 29.9647 31.4309C29.6435 30.267 28.4553 29.0087 26.4642 29.0087H19.6126L29.817 11.6417Z" fill="black" fill-opacity="0.6"/>
<path d="M15.4793 36.0431C15.0848 35.614 14.2009 34.9282 13.4258 34.7025C12.2441 34.3583 11.3482 34.5743 10.8962 34.7623L9.17386 37.6936C8.53684 38.7777 8.91766 40.1624 10.0244 40.7864C11.1312 41.4104 12.5448 41.0373 13.1819 39.9532L15.4793 36.0431Z" fill="url(#paint1_linear_1_1194)"/>
<path d="M15.4793 36.0431C15.0848 35.614 14.2009 34.9282 13.4258 34.7025C12.2441 34.3583 11.3482 34.5743 10.8962 34.7623L9.17386 37.6936C8.53684 38.7777 8.91766 40.1624 10.0244 40.7864C11.1312 41.4104 12.5448 41.0373 13.1819 39.9532L15.4793 36.0431Z" fill="black" fill-opacity="0.6"/>
<path d="M37.7806 33.5386H41.301C42.578 33.5386 43.6132 32.5245 43.6132 31.2736C43.6132 30.0228 42.578 29.0087 41.301 29.0087H35.119L28.1553 17.1572C27.638 17.6387 26.6462 18.8689 26.4963 20.2636C26.3036 22.0567 26.5927 23.5666 27.4597 25.0451C30.3749 30.0159 33.2946 34.9846 36.214 39.9532C36.851 41.0373 38.2646 41.4104 39.3714 40.7864C40.4782 40.1624 40.859 38.7777 40.222 37.6936L37.7806 33.5386Z" fill="url(#paint2_linear_1_1194)"/>
<path d="M37.7806 33.5386H41.301C42.578 33.5386 43.6132 32.5245 43.6132 31.2736C43.6132 30.0228 42.578 29.0087 41.301 29.0087H35.119L28.1553 17.1572C27.638 17.6387 26.6462 18.8689 26.4963 20.2636C26.3036 22.0567 26.5927 23.5666 27.4597 25.0451C30.3749 30.0159 33.2946 34.9846 36.214 39.9532C36.851 41.0373 38.2646 41.4104 39.3714 40.7864C40.4782 40.1624 40.859 38.7777 40.222 37.6936L37.7806 33.5386Z" fill="black" fill-opacity="0.6"/>
</g>
<path d="M23.4334 12.016L24.6979 14.1682L25.9625 12.016L27.0735 10.1251L25.8213 9.38931L27.0735 10.1251C27.2983 9.74253 27.8238 9.58842 28.2461 9.82649C28.6512 10.0549 28.7665 10.5345 28.5525 10.8987L18.348 28.2657L17.0497 30.4754H19.6126H26.4642C27.7597 30.4754 28.3954 31.2579 28.5508 31.821C28.5707 31.8932 28.5836 31.9773 28.5881 32.0719H8.03067C7.53495 32.0719 7.18511 31.6861 7.18511 31.2736C7.18511 30.8612 7.53495 30.4754 8.03067 30.4754H14.2769H15.1162L15.5414 29.7517L23.2946 16.5565L23.7312 15.8135L23.2946 15.0704L20.8434 10.8987C20.6294 10.5345 20.7446 10.0549 21.1497 9.82649C21.572 9.58842 22.0975 9.74253 22.3223 10.1251L23.4334 12.016ZM13.0158 36.1107C13.1561 36.1515 13.3532 36.2437 13.5784 36.3832L11.9173 39.2102C11.6925 39.5927 11.167 39.7468 10.7447 39.5088C10.3396 39.2804 10.2244 38.8008 10.4384 38.4366L11.8639 36.0106C12.1417 35.9703 12.5324 35.9699 13.0158 36.1107ZM27.9546 20.4203C27.9725 20.254 28.0123 20.082 28.0705 19.908L33.8545 29.7517L34.2797 30.4754H35.119H41.301C41.7967 30.4754 42.1465 30.8612 42.1465 31.2736C42.1465 31.6861 41.7967 32.0719 41.301 32.0719H37.7806H35.2177L36.5161 34.2816L38.9575 38.4366C39.1715 38.8008 39.0562 39.2804 38.6511 39.5088C38.2288 39.7468 37.7033 39.5927 37.4785 39.2102L37.1378 38.6302C34.3319 33.8549 31.5262 29.08 28.7249 24.3032L28.7249 24.3032C28.0323 23.1221 27.7921 21.9327 27.9546 20.4203Z" stroke="url(#paint3_linear_1_1194)" stroke-width="2.93333"/>
<defs>
<filter id="filter0_i_1_1194" x="2.80733" y="6.44658" width="40.8058" height="34.6421" filterUnits="userSpaceOnUse" color-interpolation-filters="sRGB">
<feFlood flood-opacity="0" result="BackgroundImageFix"/>
<feBlend mode="normal" in="SourceGraphic" in2="BackgroundImageFix" result="shape"/>
<feColorMatrix in="SourceAlpha" type="matrix" values="0 0 0 0 0 0 0 0 0 0 0 0 0 0 0 0 0 0 127 0" result="hardAlpha"/>
<feOffset dx="-2.91111" dy="-1.8"/>
<feGaussianBlur stdDeviation="2.57778"/>
<feComposite in2="hardAlpha" operator="arithmetic" k2="-1" k3="1"/>
<feColorMatrix type="matrix" values="0 0 0 0 0.980392 0 0 0 0 0.980392 0 0 0 0 0.980392 0 0 0 0.22 0"/>
<feBlend mode="normal" in2="shape" result="effect1_innerShadow_1_1194"/>
</filter>
<linearGradient id="paint0_linear_1_1194" x1="43.6132" y1="8.24658" x2="30.1974" y2="49.1228" gradientUnits="userSpaceOnUse">
<stop stop-color="#D6D3C2" stop-opacity="0.2"/>
<stop offset="1" stop-color="#5C5C5C" stop-opacity="0.14"/>
</linearGradient>
<linearGradient id="paint1_linear_1_1194" x1="43.6132" y1="8.24658" x2="30.1974" y2="49.1228" gradientUnits="userSpaceOnUse">
<stop stop-color="#D6D3C2" stop-opacity="0.2"/>
<stop offset="1" stop-color="#5C5C5C" stop-opacity="0.14"/>
</linearGradient>
<linearGradient id="paint2_linear_1_1194" x1="43.6132" y1="8.24658" x2="30.1974" y2="49.1228" gradientUnits="userSpaceOnUse">
<stop stop-color="#D6D3C2" stop-opacity="0.2"/>
<stop offset="1" stop-color="#5C5C5C" stop-opacity="0.14"/>
</linearGradient>
<linearGradient id="paint3_linear_1_1194" x1="43.6132" y1="8.24658" x2="30.0577" y2="65.1178" gradientUnits="userSpaceOnUse">
<stop stop-color="#999999"/>
<stop offset="1" stop-color="#141414"/>
</linearGradient>
</defs>
</svg>
