<svg width="25" height="16" viewBox="0 0 25 16" fill="none" xmlns="http://www.w3.org/2000/svg">
<path d="M12.0148 1.62317V7.0437H1.31161C0.771228 7.0437 0.332657 7.47214 0.332657 8.00003C0.332657 8.52793 0.771228 8.95637 1.31161 8.95637H12.0148V14.3769C12.0148 14.725 12.208 15.0463 12.5213 15.2147C12.8332 15.383 13.2144 15.3715 13.5146 15.1866L23.8745 8.80974C24.1604 8.63377 24.3327 8.32902 24.3327 8.00003C24.3327 7.67105 24.1604 7.3663 23.8745 7.19033L17.4278 3.22344C16.9722 2.94164 16.3666 3.07553 16.0781 3.52182C15.791 3.96939 15.928 4.55976 16.3862 4.84157L21.5159 8.00003L13.9727 12.6453V1.62317C13.9727 1.09527 13.5342 0.666829 12.9938 0.666829C12.4534 0.666829 12.0148 1.09527 12.0148 1.62317Z" fill="white"/>
<path d="M12.0148 1.62317V7.0437H1.31161C0.771228 7.0437 0.332657 7.47214 0.332657 8.00003C0.332657 8.52793 0.771228 8.95637 1.31161 8.95637H12.0148V14.3769C12.0148 14.725 12.208 15.0463 12.5213 15.2147C12.8332 15.383 13.2144 15.3715 13.5146 15.1866L23.8745 8.80974C24.1604 8.63377 24.3327 8.32902 24.3327 8.00003C24.3327 7.67105 24.1604 7.3663 23.8745 7.19033L17.4278 3.22344C16.9722 2.94164 16.3666 3.07553 16.0781 3.52182C15.791 3.96939 15.928 4.55976 16.3862 4.84157L21.5159 8.00003L13.9727 12.6453V1.62317C13.9727 1.09527 13.5342 0.666829 12.9938 0.666829C12.4534 0.666829 12.0148 1.09527 12.0148 1.62317Z" fill="url(#paint0_linear_1_1628)"/>
<defs>
<linearGradient id="paint0_linear_1_1628" x1="24.3327" y1="15.3335" x2="18.2612" y2="-4.75247" gradientUnits="userSpaceOnUse">
<stop stop-color="#E4C2A2"/>
<stop offset="1" stop-color="#FFE9BE"/>
</linearGradient>
</defs>
</svg>
